# xmcd
#
# Track frame offsets: 
#        150
#        11576
#        33118
#        46049
#        68432
#        89173
#        109426
#        124519
#        154080
#        173542
#        194879
#
# Disc length: 2652 seconds
#
# Revision: 1
# Processed by: cddbd v1.5.2PL0 Copyright (c) Steve Scherf et al.
# Submitted via: ExactAudioCopy v0.95b4
#
DISCID=890a5a0b
DTITLE=Big Bad Voodoo Daddy - Save My Soul
DYEAR=2003
DGENRE=Rock and Roll
TTITLE0=Zig Zaggity Woop Woop part 1
TTITLE1=You Know You Wrong
TTITLE2=Alawys Gonna' Get Ya
TTITLE3=Don't You Feel My Leg
TTITLE4=Oh Yeah
TTITLE5=Simple Songs
TTITLE6=Next Week Sometime
TTITLE7=Save My Soul
TTITLE8=I Like It
TTITLE9=Zig Zaggity Woop Woop part 2
TTITLE10=Outro
EXTD=
EXTT0=
EXTT1=
EXTT2=
EXTT3=
EXTT4=
EXTT5=
EXTT6=
EXTT7=
EXTT8=
EXTT9=
EXTT10=
PLAYORDER=
